<svg xmlns="http://www.w3.org/2000/svg" width="400" height="400" viewBox="0 0 400 400" fill="none">
<path d="M383.5 251C383.5 212 364 171.167 358 155.5C355.167 117.333 345.5 41 329.5 41C291 41 241.5 71.5 241.5 105C216.5 90 192.9 100 178.5 110C169.167 81 144.5 23 120.5 23C72.5 23 42.5 95.5 29.5 155.5C28.374 160.697 17 198.2 17 251C17 331.5 115 383.5 225 383.5C345 383.5 383.5 284 383.5 251Z" fill="#2E004B" stroke="#2E004B" stroke-width="24" stroke-linecap="round"/>
<mask id="mask0" mask-type="alpha" maskUnits="userSpaceOnUse" x="25" y="34" width="359" height="346">
<path d="M383.5 252C383.5 213 364 172.167 358 156.5C355.167 118.333 345.5 42 329.5 42C309.5 42 241.5 92.5 241.5 111C226.5 106.833 192.9 101 178.5 111C169.167 82 144.5 34 120.5 34C90.5 34 46.5 105 33.5 165C32.374 170.197 25 191.7 25 244.5C25 310.5 115 379.5 225 379.5C335 379.5 383.5 285 383.5 252Z" fill="#8CCFF4"/>
</mask>
<g mask="url(#mask0)">
<path d="M383.5 252C383.5 213 364 172.167 358 156.5C355.167 118.333 345.5 42 329.5 42C309.5 42 241.5 92.5 241.5 111C226.5 106.833 192.9 101 178.5 111C169.167 82 144.5 24 120.5 24C90.5 24 46.5 105 33.5 165C32.374 170.197 25 191.7 25 244.5C25 310.5 115 379.5 225 379.5C335 379.5 383.5 285 383.5 252Z" fill="white"/>
<path d="M170.5 191C96.4997 191 62.3329 268.667 46.4996 304.5C-18.5004 221 8.49957 1.72257e-05 198 0C369 -1.55441e-05 394.333 214 387.5 263.5C387.5 217 361 181 305.5 191C269.676 197.455 264.333 242.667 279.5 278.5C279.5 284.5 250.367 296.225 237.5 244C229 209.5 220.5 191 170.5 191Z" fill="#FF9034"/>
<path d="M332.5 38.5C359.363 38.5 364.711 109.328 363.98 155.85C363.858 163.595 356.361 168.933 348.92 166.778L233.319 133.305C224.831 130.847 221.602 120.183 226.787 113.028C249.444 81.7609 274.598 38.5 332.5 38.5Z" fill="#FF9034"/>
<path opacity="0.2" d="M158.5 376.5C42.3137 347.182 42.0973 236.639 62.8652 147.709C64.6974 139.864 55.421 134.321 50.0676 140.342C18.9105 175.383 9.33702 212.451 27 281C41.4968 337.262 117.833 368.667 158.5 376.5Z" fill="#6B4220"/>
<path d="M180.5 122.5C180.5 121.3 178.833 111.667 178.5 111L178 109.5L187.5 107C189 114 180.5 123.7 180.5 122.5Z" fill="#2E004B"/>
<path d="M267 120C263.8 118 245 112.167 236 109.5C233.5 102.333 232 89.1 246 93.5C263.5 99 271 122.5 267 120Z" fill="#2E004B"/>
</g>
<path d="M267.304 259C264.509 259 258.442 261.275 253.371 263.858C247.951 266.62 246.63 272.714 250.241 277.61C256.635 286.28 267.396 296 273.37 296C283.478 296 288.5 274.074 288.5 269.278C288.5 260.5 273.37 259 267.304 259Z" fill="#2E004B"/>
<mask id="mask1" mask-type="alpha" maskUnits="userSpaceOnUse" x="188" y="292" width="148" height="59">
<path d="M318.982 301.212C322.586 302.686 325.422 305.427 327.367 309.317C331.911 318.406 327.106 327.743 320.147 333.687C312.945 339.839 302.019 344 289.5 344C288.93 344 288.359 344 287.789 344C266.024 344.001 244.259 344.003 222.21 341.998C216.678 341.939 210.069 340.192 204.665 336.769C199.114 333.254 194 327.355 194 319L318.982 301.212ZM318.982 301.212C315.554 299.81 312.007 299.793 308.952 300.17M318.982 301.212L308.952 300.17M308.952 300.17C305.902 300.547 302.822 301.391 300.163 302.155M308.952 300.17L300.163 302.155M300.163 302.155C299.713 302.285 299.276 302.411 298.85 302.535M300.163 302.155L298.85 302.535M298.85 302.535C296.599 303.187 294.662 303.749 292.823 304.117M298.85 302.535L292.823 304.117M292.823 304.117C282.058 306.27 271.443 304.965 260.08 302.89C258.102 302.529 256.088 302.14 254.042 301.746C244.656 299.935 234.62 298 224.5 298C214.529 298 206.861 299.508 201.594 303.22M292.823 304.117L201.594 303.22M201.594 303.22C195.81 307.296 194 313.195 194 319L201.594 303.22Z" fill="#2E004B" stroke="#2E004B" stroke-width="12" stroke-linecap="round"/>
</mask>
<g mask="url(#mask1)">
<path d="M318.982 301.212C322.586 302.686 325.422 305.427 327.367 309.317C331.911 318.406 327.106 327.743 320.147 333.687C312.945 339.839 302.019 344 289.5 344C288.93 344 288.359 344 287.789 344C266.024 344.001 244.259 344.003 222.21 341.998C216.678 341.939 210.069 340.192 204.665 336.769C199.114 333.254 194 327.355 194 319L318.982 301.212ZM318.982 301.212C315.554 299.81 312.007 299.793 308.952 300.17M318.982 301.212L308.952 300.17M308.952 300.17C305.902 300.547 302.822 301.391 300.163 302.155M308.952 300.17L300.163 302.155M300.163 302.155C299.713 302.285 299.276 302.411 298.85 302.535M300.163 302.155L298.85 302.535M298.85 302.535C296.599 303.187 294.662 303.749 292.823 304.117M298.85 302.535L292.823 304.117M292.823 304.117C282.058 306.27 271.443 304.965 260.08 302.89C258.102 302.529 256.088 302.14 254.042 301.746C244.656 299.935 234.62 298 224.5 298C214.529 298 206.861 299.508 201.594 303.22M292.823 304.117L201.594 303.22M201.594 303.22C195.81 307.296 194 313.195 194 319L201.594 303.22Z" fill="#2E004B" stroke="#2E004B" stroke-width="12" stroke-linecap="round"/>
<mask id="mask2" mask-type="alpha" maskUnits="userSpaceOnUse" x="196" y="321" width="93" height="49">
<path d="M226.5 321.5C210.1 321.5 199.333 322.833 196 323.5L216 369.5C243.5 358.833 296.2 337.3 287 336.5C275.5 335.5 247 321.5 226.5 321.5Z" fill="#FCA0A1"/>
</mask>
<g mask="url(#mask2)">
<path d="M226.5 321.5C210.1 321.5 199.333 322.833 196 323.5L216 369.5C243.5 358.833 296.2 337.3 287 336.5C275.5 335.5 247 321.5 226.5 321.5Z" fill="#FCA0A1"/>
<path d="M218 337C216.8 325.4 233.833 323.167 242.5 323.5C228.9 309.9 197.167 314.833 183 319C195.167 329.833 219.2 348.6 218 337Z" fill="#D7859B"/>
</g>
<path d="M318.982 301.212C322.586 302.686 325.422 305.427 327.367 309.317C331.911 318.406 327.106 327.743 320.147 333.687C312.945 339.839 302.019 344 289.5 344C288.93 344 288.359 344 287.789 344C266.024 344.001 244.259 344.003 222.21 341.998C216.678 341.939 210.069 340.192 204.665 336.769C199.114 333.254 194 327.355 194 319L318.982 301.212ZM318.982 301.212C315.554 299.81 312.007 299.793 308.952 300.17M318.982 301.212L308.952 300.17M308.952 300.17C305.902 300.547 302.822 301.391 300.163 302.155M308.952 300.17L300.163 302.155M300.163 302.155C299.713 302.285 299.276 302.411 298.85 302.535M300.163 302.155L298.85 302.535M298.85 302.535C296.599 303.187 294.662 303.749 292.823 304.117M298.85 302.535L292.823 304.117M292.823 304.117C282.058 306.27 271.443 304.965 260.08 302.89C258.102 302.529 256.088 302.14 254.042 301.746C244.656 299.935 234.62 298 224.5 298C214.529 298 206.861 299.508 201.594 303.22M292.823 304.117L201.594 303.22M201.594 303.22C195.81 307.296 194 313.195 194 319L201.594 303.22Z" stroke="#2E004B" stroke-width="12" stroke-linecap="round"/>
</g>
<path d="M210 230C210 240.996 208.09 251.574 204.662 259.559C201.234 267.545 196.549 272.332 191.57 272.935C186.591 273.539 181.697 269.913 177.893 262.804C174.088 255.695 171.664 245.642 171.117 234.713C170.571 223.783 171.944 212.807 174.954 204.041C177.965 195.275 182.383 189.385 187.302 187.582C192.221 185.779 197.267 188.2 201.401 194.347C205.536 200.493 208.445 209.9 209.532 220.631L190.5 230H210Z" fill="#2E004B"/>
<path d="M326.802 204.722C311.925 208.825 299.202 223.776 293.144 234.664C289.184 241.781 295.298 245.015 307.957 240.108C322 234.664 347 234.664 344.981 231.261C343.365 228.539 328.822 224.456 328.822 224.456C343.628 220.373 351.717 207.435 349.693 203.361C349.016 202 341.608 200.639 326.802 204.722Z" fill="#2E004B"/>
<script xmlns=""/></svg>