<?xml version="1.0" standalone="no"?>
<!DOCTYPE svg PUBLIC "-//W3C//DTD SVG 20010904//EN"
 "http://www.w3.org/TR/2001/REC-SVG-20010904/DTD/svg10.dtd">
<svg version="1.0" xmlns="http://www.w3.org/2000/svg"
 width="512.000000pt" height="512.000000pt" viewBox="0 0 512.000000 512.000000"
 preserveAspectRatio="xMidYMid meet">

<g transform="translate(0.000000,512.000000) scale(0.100000,-0.100000)"
fill="inherit" stroke="none">
<path d="M340 5109 c-160 -31 -299 -173 -330 -339 -14 -73 -14 -4347 0 -4420
32 -170 170 -308 339 -340 74 -14 4348 -14 4422 0 169 32 307 170 339 340 6
33 10 449 10 1131 l0 1079 -215 0 -215 0 0 -1065 0 -1065 -2130 0 -2130 0 0
2130 0 2130 1065 0 1065 0 0 215 0 215 -1087 -1 c-599 -1 -1108 -5 -1133 -10z"/>
<path d="M3412 4908 l3 -213 485 -3 485 -2 -913 -913 -912 -912 153 -153 152
-152 910 910 910 910 5 -482 5 -483 213 -3 212 -2 0 767 0 768 -24 50 c-27 59
-46 77 -106 104 -44 20 -62 21 -813 21 l-767 0 2 -212z"/>
</g>
</svg>
